<svg width="153" height="150" viewBox="0 0 153 150" fill="none" xmlns="http://www.w3.org/2000/svg">
<rect x="0.5" y="0.5" width="149" height="149" rx="74.5" fill="#D9FCDB" stroke="#959595"/>
<path d="M63.9282 59.0166C46.2978 57.5615 35.8318 54.8543 36.9532 36.5137C37.634 25.3785 49.5661 32.053 65.1251 26.5505C80.684 21.048 81.2571 2.26042 93.2969 16.5873C104.506 29.9262 78.8607 58.2217 63.9282 59.0166Z" fill="#AEAEAE"/>
<path d="M111.765 124.718C102.683 122.461 97.2693 119.949 97.6249 108.375C97.8408 101.348 104.056 106.493 111.989 104.171C119.922 101.849 119.99 89.9495 126.353 99.9669C132.276 109.293 119.432 125.342 111.765 124.718Z" fill="#CDD4FB"/>
<path d="M69.931 121.511L71.7619 106.222C71.9078 105.004 73.2246 104.312 74.3077 104.885L83.9738 109.999C85.057 110.572 85.2357 112.055 84.3194 112.866L72.8225 123.041C71.6196 124.105 69.7394 123.11 69.931 121.511Z" fill="#D9D9D9" stroke="black" stroke-width="0.5"/>
<rect x="0.673822" y="-0.209164" width="96.8903" height="15.9581" rx="7.97906" transform="matrix(0.463731 -0.885976 0.883914 0.467649 69.0951 109.761)" fill="#D9D9D9" stroke="black"/>
<path d="M74.6586 114.422C73.2976 115.57 71.2284 114.488 71.3826 112.708L72.0597 104.894C72.1829 103.473 73.7054 102.636 74.9676 103.297L80.2657 106.068C81.5279 106.728 81.7206 108.461 80.6337 109.379L74.6586 114.422Z" fill="#D9D9D9"/>
<path d="M79.251 116.969C77.9412 118.102 75.9087 117.136 75.9486 115.399L76.1384 107.135C76.1716 105.686 77.6791 104.756 78.9854 105.377L85.0261 108.25C86.3324 108.871 86.5734 110.633 85.4814 111.578L79.251 116.969Z" fill="#D9D9D9"/>
<rect width="75.1028" height="2.46547" transform="matrix(0.463731 -0.885976 0.883914 0.467649 84.1946 108.607)" fill="#9F9F9F"/>
<rect width="75.1028" height="2.46547" transform="matrix(0.463731 -0.885976 0.883914 0.467649 84.1946 108.607)" stroke="black"/>
<path d="M72.011 124.089C70.9813 124.988 69.3855 124.143 69.5391 122.781L70.408 115.079C70.5264 114.03 71.659 113.43 72.5913 113.923L77.5447 116.544C78.477 117.037 78.6266 118.315 77.8332 119.008L72.011 124.089Z" fill="black"/>
<rect width="16.052" height="0.942118" transform="matrix(0.883914 0.467649 -0.463731 0.885976 72.6553 102.446)" fill="black"/>
<rect width="16.2511" height="0.942118" transform="matrix(0.883914 0.467649 -0.463731 0.885976 107.691 35.0647)" fill="black"/>
<path d="M63.1665 50.806C53.4495 69.878 43.3103 80.7279 29.4322 74.4312C17.9677 69.2296 16.6949 55.5709 21.8904 41.4994C28.8091 27.9576 38.0168 21.7826 51.2481 17.837C64.4795 13.8914 69.749 37.8861 63.1665 50.806Z" fill="#CDD4FB"/>
<path d="M97.6423 91.4323C98.3735 73.4041 102.175 60.1745 114.48 55.1091C124.644 50.9247 130.165 58.5279 131.074 70.5565C130.541 83.3697 125.853 93.1153 117.463 104.081C109.072 115.046 97.147 103.645 97.6423 91.4323Z" fill="white"/>
<path d="M80.338 60.9897C82.6161 86.6857 65.9683 60.5057 56.6234 73.3161C45.9452 87.954 31.2964 70.5451 32.6767 53.114C35.9566 36.1333 47.5623 59.464 59.9242 53.3142C72.2861 47.1643 78.7196 42.7341 80.338 60.9897Z" fill="#4D4D4D"/>
<path d="M71 123L58.5917 125.524C51.8863 126.888 46.6748 119.75 50.0156 113.778L53.2872 107.93C57.0678 101.172 50.0001 93.5215 42.9644 96.7555L33.9918 100.88C30.6446 102.418 26.6795 101.472 24.3876 98.588L12 83" stroke="black" stroke-width="3"/>
</svg>
