<!-- Note: svg designs are original work and were imported from a personal Figma document -->

<svg width="150" height="150" viewBox="0 0 150 150" fill="none" xmlns="http://www.w3.org/2000/svg">
<rect x="0.5" y="0.5" width="149" height="149" rx="74.5" fill="#D9FCDB" stroke="#959595"/>
<rect x="27" y="50" width="21" height="6" transform="rotate(-90 27 50)" fill="black"/>
<rect x="47" y="127" width="29" height="6" transform="rotate(-90 47 127)" fill="#5C5C5C"/>
<rect x="47" y="68" width="48" height="6" transform="rotate(-90 47 68)" fill="#5C5C5C"/>
<rect x="47" y="95" width="24" height="6" transform="rotate(-90 47 95)" fill="black"/>
<rect x="37" y="106" width="61" height="6" transform="rotate(-90 37 106)" fill="black"/>
<rect x="27" y="90" width="37" height="6" transform="rotate(-90 27 90)" fill="#5C5C5C"/>
<rect x="27" y="122" width="29" height="6" transform="rotate(-90 27 122)" fill="#5C5C5C"/>
<rect x="37" y="43" width="12" height="6" transform="rotate(-90 37 43)" fill="#5C5C5C"/>
<rect x="62.125" y="30.125" width="64.75" height="88.75" rx="1.875" fill="black" stroke="black" stroke-width="0.25"/>
<rect x="66.1894" y="34.7" width="56.6212" height="65.1375" fill="#CDD4FB" stroke="black" stroke-width="0.5"/>
<path d="M97.164 52.4386C98.7273 51.0795 99.4766 49.8559 99.477 48.7286C99.4774 47.5875 98.7134 46.6521 97.5269 45.8692C96.3359 45.0835 94.6638 44.4129 92.722 43.8111C90.7767 43.2082 88.543 42.669 86.2189 42.1523C85.0411 41.8904 83.8406 41.6344 82.6419 41.3788C79.0998 40.6233 75.5731 39.8712 72.6905 38.9812C70.7616 38.3857 69.1435 37.7347 68.0121 36.9921C66.9842 36.3174 66.4036 35.5987 66.3023 34.8141L93.2291 34.8142L122.745 34.8143C122.455 50.0944 122.515 52.096 122.61 55.2153C122.672 57.2546 122.748 59.7717 122.75 66.7896C122.714 66.7837 122.676 66.7773 122.634 66.7703C122.37 66.7265 121.984 66.6609 121.496 66.5741C120.52 66.4007 119.138 66.1426 117.512 65.8044C114.258 65.1279 110.034 64.1317 106.141 62.8522C102.235 61.5687 98.7049 60.0134 96.8035 58.236C95.856 57.3502 95.3464 56.4406 95.3525 55.5097C95.3587 54.5806 95.8794 53.5553 97.164 52.4386Z" fill="#ADADAD" stroke="black" stroke-width="0.5"/>
<rect x="65.9394" y="104.538" width="40.3788" height="3.3375" fill="#CDD4FB"/>
<rect x="102.379" y="110.1" width="20.6818" height="3.3375" fill="#CDD4FB"/>
<rect x="82.6818" y="110.1" width="17.7273" height="3.3375" fill="white"/>
<rect x="65.9394" y="110.1" width="14.7727" height="3.3375" fill="white"/>
<rect x="108.288" y="104.538" width="14.7727" height="3.3375" fill="white"/>
<path d="M118.918 72.5725C120.362 72.7175 121.643 73.3336 122.714 74.591V74.6108V74.648V74.6854V74.7228V74.7604V74.7982V74.836V74.874V74.9121V74.9503V74.9886V75.0271V75.0657V75.1044V75.1432V75.1822V75.2213V75.2605V75.2998V75.3392V75.3788V75.4185V75.4583V75.4982V75.5382V75.5783V75.6186V75.659V75.6995V75.7401V75.7808V75.8217V75.8626V75.9037V75.9449V75.9862V76.0276V76.0691V76.1107V76.1525V76.1943V76.2363V76.2784V76.3205V76.3628V76.4052V76.4477V76.4904V76.5331V76.5759V76.6189V76.6619V76.705V76.7483V76.7917V76.8351V76.8787V76.9224V76.9661V77.01V77.054V77.0981V77.1423V77.1866V77.2309V77.2754V77.32V77.3647V77.4095V77.4544V77.4994V77.5444V77.5896V77.6349V77.6803V77.7257V77.7713V77.8169V77.8627V77.9085V77.9545V78.0005V78.0466V78.0929V78.1392V78.1856V78.2321V78.2787V78.3253V78.3721V78.419V78.4659V78.5129V78.5601V78.6073V78.6546V78.702V78.7494V78.797V78.8446V78.8924V78.9402V78.9881V79.0361V79.0841V79.1323V79.1805V79.2288V79.2772V79.3257V79.3743V79.4229V79.4717V79.5205V79.5693V79.6183V79.6673V79.7165V79.7657V79.8149V79.8643V79.9137V79.9632V80.0128V80.0625V80.1122V80.162V80.2119V80.2618V80.3119V80.362V80.4121V80.4624V80.5127V80.5631V80.6136V80.6641V80.7147V80.7654V80.8161V80.8669V80.9178V80.9687V81.0197V81.0708V81.1219V81.1732V81.2244V81.2758V81.3272V81.3786V81.4302V81.4818V81.5334V81.5852V81.6369V81.6888V81.7407V81.7927V81.8447V81.8968V81.949V82.0012V82.0534V82.1058V82.1581V82.2106V82.2631V82.3156V82.3683V82.4209V82.4737V82.5264V82.5793V82.6322V82.6851V82.7381V82.7912V82.8443V82.8974V82.9506V83.0039V83.0572V83.1106V83.164V83.2174V83.2709V83.3245V83.3781V83.4318V83.4855V83.5392V83.593V83.6468V83.7007V83.7547V83.8086V83.8627V83.9167V83.9708V84.025V84.0792V84.1334V84.1877V84.2421V84.2964V84.3508V84.4053V84.4598V84.5143V84.5688V84.6235V84.6781V84.7328V84.7875V84.8422V84.897V84.9519V85.0067V85.0616V85.1166V85.1715V85.2265V85.2816V85.3366V85.3917V85.4469V85.502V85.5572V85.6125V85.6677V85.723V85.7783V85.8337V85.8891V85.9445V85.9999V86.0554V86.1109V86.1664V86.2219V86.2775V86.3331V86.3887V86.4444V86.5V86.5557V86.6115V86.6672V86.723V86.7787V86.8346V86.8904V86.9462V87.0021V87.058V87.1139V87.1698V87.2258V87.2818V87.3377V87.3937V87.4498V87.5058V87.5619V87.6179V87.674V87.7301V87.7862V87.8424V87.8985V87.9547V88.0108V88.067V88.1232V88.1794V88.2356V88.2919V88.3481V88.4044V88.4606V88.5169V88.5732V88.6294V88.6857V88.742V88.7983V88.8547V88.911V88.9673V89.0236V89.08V89.1363V89.1927V89.249V89.3054V89.3617V89.4181V89.4744V89.5308V89.5872V89.6435V89.6999V89.7563V89.8126V89.869V89.9254V89.9817V90.0381V90.0944V90.1508V90.2071V90.2635V90.3198V90.3762V90.4325V90.4888V90.5451V90.6015V90.6578V90.7141V90.7704V90.8266V90.8829V90.9392V90.9954V91.0517V91.1079V91.1641V91.2204V91.2766V91.3328V91.3889V91.4451V91.5013V91.5574V91.6135V91.6696V91.7257V91.7818V91.8379V91.8939V91.95V92.006V92.062V92.118V92.1739V92.2299V92.2858V92.3417V92.3976V92.4535V92.5093V92.5651V92.621V92.6767V92.7325V92.7882V92.8439V92.8996V92.9553V93.0109V93.0666V93.1221V93.1777V93.2332V93.2888V93.3442V93.3997V93.4551V93.5105V93.5659V93.6213V93.6766V93.7319V93.7871V93.8423V93.8975V93.9527V94.0078V94.0629V94.118V94.173V94.228V94.283V94.3379V94.3928V94.4476V94.5025V94.5572V94.612V94.6667V94.7214V94.776V94.8306V94.8852V94.9397V94.9942V95.0486V95.103V95.1573V95.2117V95.2659V95.3202V95.3744V95.4285V95.4826V95.5367V95.5907V95.6447V95.6986V95.7525V95.8063V95.8601V95.9138V95.9675V96.0212V96.0747V96.1283V96.1818V96.2352V96.2886V96.342V96.3953V96.4485V96.5017V96.5549V96.608V96.661V96.714V96.7669V96.8198V96.8726V96.9254V96.9781V97.0308V97.0834V97.1359V97.1884V97.2409V97.2932V97.3456V97.3978V97.45V97.5021V97.5542V97.6062V97.6582V97.7101V97.7619V97.8137V97.8654V97.9171V97.9686V98.0202V98.0716V98.123V98.1743V98.2256V98.2768V98.3279V98.379V98.43V98.4809V98.5318V98.5826V98.6333V98.684V98.7345V98.7851V98.8355V98.8859V98.9362V98.9864V99.0366V99.0866V99.1367V99.1866V99.2365V99.2863V99.336V99.3856V99.4352V99.4847V99.5341V99.5834V99.6327V99.6819V99.731V99.78V99.8289V99.8778V99.9266V99.9753V100.024V100.072V100.121V100.169V100.218V100.266V100.314V100.362V100.41V100.458V100.493L95.7709 100.493L66.2552 100.493C66.3945 94.2044 67.2153 89.6145 68.4286 86.3812C69.6585 83.1034 71.2825 81.2422 72.9862 80.3969C74.6836 79.5546 76.5035 79.6992 78.1819 80.5238C79.8645 81.3504 81.3959 82.8581 82.4805 84.7164C83.4056 86.3013 84.6206 87.1716 86.059 87.4741C87.4847 87.774 89.0994 87.5097 90.8234 86.8931C94.2664 85.6617 98.2615 82.9799 102.276 80.2818L102.317 80.254C106.336 77.5532 110.376 74.8377 113.97 73.4598C115.771 72.7693 117.437 72.424 118.918 72.5725Z" fill="#ADADAD" stroke="black" stroke-width="0.5"/>
<path d="M78.5589 51.1253C79.4007 51.0098 80.0883 51.1956 80.6605 51.5933C81.2385 51.9949 81.7119 52.6222 82.098 53.408C82.8719 54.983 83.2649 57.1313 83.4781 59.1542C83.536 59.7033 83.7606 60.3338 84.0859 61.0071C84.4128 61.6838 84.8494 62.4201 85.3456 63.1839C86.1154 64.3689 87.0379 65.6342 87.9307 66.8587C88.1876 67.2111 88.442 67.5601 88.6897 67.9028C89.8052 69.4466 90.7753 70.854 91.2458 71.9013C91.4848 72.4333 91.5705 72.8218 91.5269 73.0711C91.5071 73.1843 91.462 73.2613 91.3941 73.3182C91.3217 73.379 91.202 73.4345 91.0065 73.4613C90.6164 73.5149 90.0454 73.4137 89.3193 73.1548C88.601 72.8987 87.7604 72.4993 86.8433 71.9892C85.0098 70.9694 82.891 69.5184 80.8681 67.923C78.8451 66.3275 76.9249 64.5931 75.4863 63.0089C74.7668 62.2165 74.1717 61.4661 73.7447 60.7928C73.3143 60.1141 73.0694 59.5364 73.022 59.0862C72.606 55.1385 75.1135 51.5981 78.5589 51.1253Z" fill="black" stroke="black" stroke-width="0.5"/>
</svg>
